<svg id="Layer_1" data-name="Layer 1" xmlns="http://www.w3.org/2000/svg" viewBox="0 0 166.71 24.24"><defs><style>.cls-1{fill:#212121;}</style></defs><title>Belfeen Logo</title><path class="cls-1" d="M.25,10.92c0-1.74,0-3.29-.06-4.64S.08,3.57,0,2.2c.36,0,.74.08,1.16.11s.9,0,1.42,0c.9,0,1.85,0,2.83-.08S7.34,2.2,8.25,2.2a10.89,10.89,0,0,1,2.58.29,6,6,0,0,1,2,.86,4,4,0,0,1,1.31,1.51,5.05,5.05,0,0,1,.46,2.22,4.35,4.35,0,0,1-.54,2.22,5.2,5.2,0,0,1-1.31,1.54,6.29,6.29,0,0,1-1.66,1,8.52,8.52,0,0,1-1.63.48v.06a6.82,6.82,0,0,1,1.7.33A6.49,6.49,0,0,1,13,13.6a5.56,5.56,0,0,1,1.5,1.62,4.47,4.47,0,0,1,.61,2.41,6.23,6.23,0,0,1-.61,2.89,5.61,5.61,0,0,1-1.64,2,6.21,6.21,0,0,1-2.35,1.05,12.28,12.28,0,0,1-2.73.3c-.84,0-1.62,0-2.35,0s-1.48,0-2.28,0H1.43A13.45,13.45,0,0,0,0,23.83c.08-1.3.15-2.63.19-4S.25,17,.25,15.2ZM10,7.68a5.55,5.55,0,0,0-.18-1.43,2.93,2.93,0,0,0-.58-1.17,3.06,3.06,0,0,0-1-.78A3.63,3.63,0,0,0,6.58,4h-1A4.46,4.46,0,0,0,5,4.09c0,.78-.08,1.57-.1,2.36s0,1.47,0,2,0,1.11,0,1.62,0,1,0,1.59H6.36a3.55,3.55,0,0,0,2.45-1,3.62,3.62,0,0,0,.82-1.25A4.53,4.53,0,0,0,10,7.68Zm.22,10.17a4.74,4.74,0,0,0-1-3.29,3.72,3.72,0,0,0-2.89-1.09l-.75,0h-.6c0,.45,0,.9,0,1.37s0,1,0,1.69,0,1,0,1.54,0,1,0,1.54,0,1,0,1.39,0,.76,0,1l.82,0,.92,0A3.11,3.11,0,0,0,9.13,21a4.13,4.13,0,0,0,.75-1.34A5.3,5.3,0,0,0,10.17,17.85Z"/><path class="cls-1" d="M22.38,16.31a10.48,10.48,0,0,0,.25,2.36,6.05,6.05,0,0,0,.77,1.9,3.67,3.67,0,0,0,3.2,1.72,5.89,5.89,0,0,0,3.87-1.42l.38.28-.69,1.77a7,7,0,0,1-1.89,1,9.6,9.6,0,0,1-2.9.36,9.75,9.75,0,0,1-2.93-.43A6.28,6.28,0,0,1,20,22.41a6.85,6.85,0,0,1-1.66-2.47,9.35,9.35,0,0,1-.62-3.57,10.57,10.57,0,0,1,.55-3.56,7,7,0,0,1,1.53-2.52,6.31,6.31,0,0,1,2.31-1.51A8.32,8.32,0,0,1,25,8.28a6.11,6.11,0,0,1,4.76,1.82,7.4,7.4,0,0,1,1.66,5.17v.66a1.1,1.1,0,0,1,0,.38Zm4.85-1.42a12.4,12.4,0,0,0-.58-3.78A1.82,1.82,0,0,0,24.9,9.7a1.58,1.58,0,0,0-1.17.47A3.46,3.46,0,0,0,23,11.38a8.3,8.3,0,0,0-.43,1.67,16.56,16.56,0,0,0-.17,1.84Z"/><path class="cls-1" d="M34.62,5.32c0-1.72-.1-3.46-.18-5.23.27.05.61.08,1,.12s.87,0,1.33,0,.9,0,1.32,0,.76-.07,1-.12C39.07,1.86,39,3.6,39,5.32s-.06,3.61-.06,5.67v2q0,3.09.06,5.67c0,1.72.1,3.43.19,5.13a7.47,7.47,0,0,0-1-.06H35.47a7.22,7.22,0,0,0-1,.06q.12-2.55.18-5.13c.05-1.72.07-3.61.07-5.67V11C34.69,8.93,34.67,7,34.62,5.32Z"/><path class="cls-1" d="M51.06,9.29a2.54,2.54,0,0,0,0,.41,2.77,2.77,0,0,0,0,.39q0,.21.06.39l-3-.06V13q0,3.09.06,5.67c.05,1.72.11,3.43.19,5.13a7.37,7.37,0,0,0-1-.06H44.73a7.37,7.37,0,0,0-1,.06c.09-1.7.15-3.41.19-5.13s.06-3.61.06-5.67V10.45l-2.2,0a3.33,3.33,0,0,0,.09-.78,4.48,4.48,0,0,0-.09-.85l2.2.09a31.93,31.93,0,0,1,.79-3.56A10.66,10.66,0,0,1,46,2.55,5.34,5.34,0,0,1,50.77,0,6.68,6.68,0,0,1,52.1.16,7.76,7.76,0,0,0,52,1.53c0,.57,0,1.14,0,1.68v1l-.38.13a8.53,8.53,0,0,0-1.45-.63,4.76,4.76,0,0,0-1.57-.29,2.67,2.67,0,0,0-1.4.3,1.13,1.13,0,0,0-.49,1.06,5.38,5.38,0,0,0,.43,1.85,15.11,15.11,0,0,0,1,2.24l3-.06C51.1,9,51.08,9.16,51.06,9.29Z"/><path class="cls-1" d="M56.79,16.31A10.48,10.48,0,0,0,57,18.67a5.83,5.83,0,0,0,.77,1.9,3.7,3.7,0,0,0,1.32,1.26,3.78,3.78,0,0,0,1.87.46,5.94,5.94,0,0,0,3.88-1.42l.37.28-.69,1.77a6.7,6.7,0,0,1-1.89,1,9.52,9.52,0,0,1-2.89.36,9.71,9.71,0,0,1-2.93-.43,6.14,6.14,0,0,1-2.44-1.4,6.87,6.87,0,0,1-1.67-2.47,9.36,9.36,0,0,1-.61-3.57,10.32,10.32,0,0,1,.55-3.56,6.88,6.88,0,0,1,1.52-2.52,6.26,6.26,0,0,1,2.32-1.51,8.31,8.31,0,0,1,2.91-.5A6.12,6.12,0,0,1,64.2,10.1a7.45,7.45,0,0,1,1.65,5.17v.66a1.57,1.57,0,0,1,0,.38Zm4.84-1.42a12.1,12.1,0,0,0-.58-3.78A1.82,1.82,0,0,0,59.3,9.7a1.55,1.55,0,0,0-1.16.47,3.34,3.34,0,0,0-.76,1.21A8.31,8.31,0,0,0,57,13.05a14.47,14.47,0,0,0-.17,1.84Z"/><path class="cls-1" d="M72.52,16.31a10.47,10.47,0,0,0,.26,2.36,5.61,5.61,0,0,0,.77,1.9,3.62,3.62,0,0,0,1.32,1.26,3.75,3.75,0,0,0,1.87.46,5.89,5.89,0,0,0,3.87-1.42l.38.28-.69,1.77a7,7,0,0,1-1.89,1,9.55,9.55,0,0,1-2.9.36,9.69,9.69,0,0,1-2.92-.43,6.14,6.14,0,0,1-2.44-1.4,6.74,6.74,0,0,1-1.67-2.47,9.36,9.36,0,0,1-.61-3.57,10.32,10.32,0,0,1,.55-3.56,6.88,6.88,0,0,1,1.52-2.52,6.26,6.26,0,0,1,2.32-1.51,8.31,8.31,0,0,1,2.91-.5,6.12,6.12,0,0,1,4.77,1.82,7.45,7.45,0,0,1,1.65,5.17v.66a1.57,1.57,0,0,1,0,.38Zm4.85-1.42a12.1,12.1,0,0,0-.58-3.78A1.82,1.82,0,0,0,75,9.7a1.55,1.55,0,0,0-1.16.47,3.34,3.34,0,0,0-.76,1.21,7.69,7.69,0,0,0-.42,1.67,14.5,14.5,0,0,0-.18,1.84Z"/><path class="cls-1" d="M88.7,11.05A6.84,6.84,0,0,1,90.77,9a5,5,0,0,1,2.69-.72,4.73,4.73,0,0,1,3.63,1.37,6.36,6.36,0,0,1,1.28,4.42c0,1.07,0,2-.07,2.83s-.06,1.64-.06,2.46,0,1.4.05,2.19.07,1.54.11,2.28a7.37,7.37,0,0,0-1-.06H94.72a7.37,7.37,0,0,0-1,.06c.14-1.09.24-2.38.28-3.86S94,16.8,94,14.89A5,5,0,0,0,93.35,12a2.24,2.24,0,0,0-1.91-.93,2.18,2.18,0,0,0-2.07,1.23,7.12,7.12,0,0,0-.67,3.4v1.26c0,1.28,0,2.48,0,3.61s.1,2.23.21,3.28a7.42,7.42,0,0,0-1-.06H85.27a7.89,7.89,0,0,0-1,.06c.11-1,.18-2.14.21-3.28s0-2.33,0-3.61V15.68c0-1.28,0-2.48,0-3.61s-.1-2.25-.21-3.38l1.12.11c.37,0,.74,0,1.12,0s.75,0,1.12,0l1.18-.11-.13,2.36Z"/><path class="cls-1" d="M101.86,21.75a2.58,2.58,0,0,1,4.41-1.82,2.48,2.48,0,0,1,.75,1.82,2.35,2.35,0,0,1-.75,1.78,2.7,2.7,0,0,1-3.65,0A2.32,2.32,0,0,1,101.86,21.75Z"/><path class="cls-1" d="M121,10.75a2.7,2.7,0,0,0-2.18-.87,3.07,3.07,0,0,0-2.84,1.72,10,10,0,0,0-.94,4.77,7,7,0,0,0,1.19,4.39,4.18,4.18,0,0,0,3.5,1.53,4.25,4.25,0,0,0,1.89-.46,3.73,3.73,0,0,0,1.35-1l.38.31a7.41,7.41,0,0,0-.38.92c-.11.31-.21.62-.31.94a6.37,6.37,0,0,1-1.75.9,7.76,7.76,0,0,1-2.5.36,10,10,0,0,1-3.88-.66,6.53,6.53,0,0,1-2.53-1.8,6.76,6.76,0,0,1-1.37-2.56,10.6,10.6,0,0,1-.41-2.88,8.81,8.81,0,0,1,.58-3.21,7.29,7.29,0,0,1,1.67-2.55,7.78,7.78,0,0,1,2.63-1.69,9.19,9.19,0,0,1,3.43-.61,9.89,9.89,0,0,1,3,.41,12.39,12.39,0,0,1,2.38,1.07,8.26,8.26,0,0,0-.71,1.54A11.18,11.18,0,0,0,122.7,13H122A4.69,4.69,0,0,0,121,10.75Z"/><path class="cls-1" d="M125.6,16.68a9.68,9.68,0,0,1,.64-3.68A7.75,7.75,0,0,1,128,10.37a6.76,6.76,0,0,1,2.47-1.57,8.11,8.11,0,0,1,2.88-.52,7.58,7.58,0,0,1,5.7,2.08A7.74,7.74,0,0,1,141,16a9.89,9.89,0,0,1-.57,3.46,7.47,7.47,0,0,1-1.59,2.63,6.22,6.22,0,0,1-2.44,1.62,8.64,8.64,0,0,1-3.11.54,10.54,10.54,0,0,1-2.79-.38,6.84,6.84,0,0,1-2.47-1.27,6.56,6.56,0,0,1-1.78-2.35A8.38,8.38,0,0,1,125.6,16.68Zm10.76-1.16a10.73,10.73,0,0,0-.69-4.3,2.37,2.37,0,0,0-2.3-1.52,2.53,2.53,0,0,0-2.28,1.7,12.6,12.6,0,0,0-.84,5.31,18.6,18.6,0,0,0,.16,2.46,7.84,7.84,0,0,0,.52,2,3.33,3.33,0,0,0,.95,1.3,2.19,2.19,0,0,0,1.46.48Q136.35,22.92,136.36,15.52Z"/><path class="cls-1" d="M148.1,11.05A6.93,6.93,0,0,1,150.16,9a5.1,5.1,0,0,1,2.7-.72,3.94,3.94,0,0,1,2.43.77,4.79,4.79,0,0,1,1.59,2.22,7,7,0,0,1,2.21-2.22,5.07,5.07,0,0,1,2.67-.77,4.73,4.73,0,0,1,3.64,1.37,6.36,6.36,0,0,1,1.27,4.42c0,1.07,0,2-.06,2.83s-.06,1.64-.06,2.46,0,1.4,0,2.19.06,1.54.11,2.28a7.47,7.47,0,0,0-1-.06H163a7.47,7.47,0,0,0-1,.06,38.55,38.55,0,0,0,.29-3.86c0-1.48.06-3.17.06-5.08a5.09,5.09,0,0,0-.66-2.91,2.15,2.15,0,0,0-1.86-.93,2,2,0,0,0-1.24.35,2.45,2.45,0,0,0-.77.89,3.71,3.71,0,0,0-.38,1.18,8.5,8.5,0,0,0-.09,1.2v2.27c0,1.28,0,2.48,0,3.61s.1,2.23.21,3.28a7.42,7.42,0,0,0-1-.06h-2.66a7.73,7.73,0,0,0-1,.06c.1-1,.17-2.14.2-3.28s.05-2.33.05-3.61V15a7.16,7.16,0,0,0-.48-2.93,1.78,1.78,0,0,0-1.79-1,2.21,2.21,0,0,0-2.08,1.23,7.25,7.25,0,0,0-.66,3.4v1.26c0,1.28,0,2.48.05,3.61s.1,2.23.2,3.28a7.16,7.16,0,0,0-1-.06h-2.66a7.89,7.89,0,0,0-1,.06c.11-1,.18-2.14.21-3.28s0-2.33,0-3.61V15.68c0-1.28,0-2.48,0-3.61s-.1-2.25-.21-3.38l1.12.11c.37,0,.74,0,1.12,0s.75,0,1.11,0l1.19-.11L148,11.05Z"/></svg>